<?xml version="1.0" encoding="utf-8"?>
<!-- Generator: Adobe Illustrator 14.0.0, SVG Export Plug-In . SVG Version: 6.00 Build 43363)  -->
<!DOCTYPE svg PUBLIC "-//W3C//DTD SVG 1.1//EN" "http://www.w3.org/Graphics/SVG/1.1/DTD/svg11.dtd">
<svg version="1.1" id="レイヤー_1" xmlns="http://www.w3.org/2000/svg" xmlns:xlink="http://www.w3.org/1999/xlink" x="0px"
	 y="0px" width="200px" height="200px" viewBox="0 0 200 200" enable-background="new 0 0 200 200" xml:space="preserve">
<g id="XMLID_1_">
	<g>
		<path fill="#FCEE21" d="M98.78,3.98c50.74,0,91.871,41.96,91.871,93.71c0,51.77-41.131,93.72-91.871,93.72S6.91,149.46,6.91,97.69
			C6.91,45.94,48.04,3.98,98.78,3.98z M161.08,132.67l-14.03-0.2c-1.59-0.02-3.16-0.04-4.7-0.06l-15.47-0.22
			c-1.56-0.021-3.09-0.051-4.59-0.07l-12.86-0.18c-2.029-0.03-3.989-0.061-5.91-0.08l-1.89-0.03c-1.25-0.021-2.47-0.03-3.67-0.05
			c-1.2-0.021-2.38-0.03-3.53-0.05l-1.83-0.021c-1.09-0.02-2.16-0.04-3.2-0.05l-2.34-0.03c-3.84-0.06-7.38-0.11-10.64-0.149
			l-1.92-0.03c-1.25-0.021-2.47-0.03-3.64-0.05c-1.17-0.021-2.3-0.03-3.38-0.051l-28.82-0.399
			C49.75,170.6,155.66,172.08,161.08,132.67z M139.42,85.13c8.98,0,16.25-6.94,16.25-15.51c0-8.57-7.27-15.52-16.25-15.52
			c-8.979,0-16.26,6.95-16.26,15.52C123.16,78.19,130.44,85.13,139.42,85.13z M67.99,67.15c0-8.7-7.17-15.76-16.01-15.76
			s-16.01,7.06-16.01,15.76c0,8.71,7.17,15.77,16.01,15.77S67.99,75.86,67.99,67.15z"/>
		<path fill="#FF00FF" d="M147.05,132.47l14.03,0.2c-5.42,39.41-111.33,37.93-122.42-1.72l28.82,0.399l3.38,0.051l3.64,0.05
			l1.92,0.03l10.64,0.149l2.34,0.03l3.2,0.05l1.83,0.021l3.53,0.05l3.67,0.05l1.89,0.03l5.91,0.08l12.86,0.18l4.59,0.07l15.47,0.22
			L147.05,132.47z"/>
		<path fill="#FFFFFF" d="M152.7,63.77c0,1.87-1.65,3.38-3.69,3.38s-3.7-1.51-3.7-3.38s1.66-3.39,3.7-3.39S152.7,61.9,152.7,63.77z"
			/>
		<path d="M155.67,69.62c0,8.57-7.27,15.51-16.25,15.51c-8.979,0-16.26-6.94-16.26-15.51c0-8.57,7.28-15.52,16.26-15.52
			C148.4,54.1,155.67,61.05,155.67,69.62z M149.01,67.15c2.04,0,3.69-1.51,3.69-3.38s-1.65-3.39-3.69-3.39s-3.7,1.52-3.7,3.39
			S146.97,67.15,149.01,67.15z"/>
		<path fill="#FFFFFF" d="M147.05,132.47l-4.7-0.06C143.89,132.43,145.46,132.45,147.05,132.47z"/>
		<path fill="#FFFFFF" d="M126.88,132.19l-4.59-0.07C123.79,132.14,125.32,132.17,126.88,132.19z"/>
		<path fill="#FFFFFF" d="M109.43,131.94l-5.91-0.08C105.44,131.88,107.4,131.91,109.43,131.94z"/>
		<path fill="#FFFFFF" d="M101.63,131.83l-3.67-0.05C99.16,131.8,100.38,131.81,101.63,131.83z"/>
		<path fill="#FFFFFF" d="M97.96,131.78l-3.53-0.05C95.58,131.75,96.76,131.76,97.96,131.78z"/>
		<path fill="#FFFFFF" d="M92.6,131.71l-3.2-0.05C90.44,131.67,91.51,131.69,92.6,131.71z"/>
		<path fill="#FFFFFF" d="M87.06,131.63l-10.64-0.149C79.68,131.52,83.22,131.57,87.06,131.63z"/>
		<path fill="#FFFFFF" d="M74.5,131.45l-3.64-0.05C72.03,131.42,73.25,131.43,74.5,131.45z"/>
		<path fill="#FFFFFF" d="M70.86,131.4l-3.38-0.051C68.56,131.37,69.69,131.38,70.86,131.4z"/>
		<path d="M51.98,51.39c8.84,0,16.01,7.06,16.01,15.76c0,8.71-7.17,15.77-16.01,15.77s-16.01-7.06-16.01-15.77
			C35.97,58.45,43.14,51.39,51.98,51.39z M62.56,60.38c0-2.38-1.93-4.31-4.31-4.31s-4.31,1.93-4.31,4.31s1.93,4.31,4.31,4.31
			S62.56,62.76,62.56,60.38z"/>
		<circle fill="#FFFFFF" cx="58.25" cy="60.38" r="4.31"/>
	</g>
	<g>
		<path fill="none" stroke="#000000" d="M190.65,97.69c0,51.77-41.131,93.72-91.871,93.72S6.91,149.46,6.91,97.69
			c0-51.75,41.13-93.71,91.87-93.71S190.65,45.94,190.65,97.69z"/>
		<path fill="none" stroke="#000000" d="M67.99,67.15c0,8.71-7.17,15.77-16.01,15.77s-16.01-7.06-16.01-15.77
			c0-8.7,7.17-15.76,16.01-15.76S67.99,58.45,67.99,67.15z"/>
		<path fill="none" stroke="#000000" d="M155.67,69.62c0,8.57-7.27,15.51-16.25,15.51c-8.979,0-16.26-6.94-16.26-15.51
			c0-8.57,7.28-15.52,16.26-15.52C148.4,54.1,155.67,61.05,155.67,69.62z"/>
		<path fill="none" stroke="#000000" d="M74.5,131.45c-1.25-0.021-2.47-0.03-3.64-0.05c-1.17-0.021-2.3-0.03-3.38-0.051"/>
		<path fill="none" stroke="#000000" d="M87.06,131.63c-3.84-0.06-7.38-0.11-10.64-0.149"/>
		<path fill="none" stroke="#000000" d="M92.6,131.71c-1.09-0.02-2.16-0.04-3.2-0.05"/>
		<path fill="none" stroke="#000000" d="M101.63,131.83c-1.25-0.021-2.47-0.03-3.67-0.05c-1.2-0.021-2.38-0.03-3.53-0.05"/>
		<path fill="none" stroke="#000000" d="M109.43,131.94c-2.029-0.03-3.989-0.061-5.91-0.08"/>
		<path fill="none" stroke="#000000" d="M126.88,132.19c-1.56-0.021-3.09-0.051-4.59-0.07"/>
		<path fill="none" stroke="#000000" d="M147.05,132.47c-1.59-0.02-3.16-0.04-4.7-0.06"/>
		<path fill="none" stroke="#000000" stroke-width="2" d="M161.08,132.67c-5.42,39.41-111.33,37.93-122.42-1.72"/>
		<polyline fill="none" stroke="#000000" stroke-width="2" points="38.66,130.95 67.48,131.35 70.86,131.4 74.5,131.45 
			76.42,131.48 87.06,131.63 89.4,131.66 92.6,131.71 94.43,131.73 97.96,131.78 101.63,131.83 103.52,131.86 109.43,131.94 
			122.29,132.12 126.88,132.19 142.35,132.41 147.05,132.47 161.08,132.67 		"/>
		<path fill="none" stroke="#000000" stroke-width="0.25" d="M152.7,63.77c0,1.87-1.65,3.38-3.69,3.38s-3.7-1.51-3.7-3.38
			s1.66-3.39,3.7-3.39S152.7,61.9,152.7,63.77z"/>
		<circle fill="none" stroke="#000000" stroke-width="0.25" cx="58.25" cy="60.38" r="4.31"/>
	</g>
</g>
</svg>
